<svg width="32" height="32" viewBox="0 0 32 32" fill="none" xmlns="http://www.w3.org/2000/svg">
<rect width="32" height="32" rx="10" fill="white" fill-opacity="0.12"/>
<path d="M15.6342 8.72156C15.7075 8.58851 15.8474 8.50586 15.9992 8.50586C16.1511 8.50586 16.291 8.58851 16.3642 8.72156L18.8242 13.3916C18.943 13.6105 19.1535 13.7649 19.3981 13.8123C19.6426 13.8597 19.8956 13.7952 20.0876 13.6366L23.6517 10.5832C23.7921 10.4691 23.9901 10.4585 24.1418 10.5572C24.2935 10.6558 24.3642 10.8411 24.3167 11.0157L21.9551 19.5541C21.856 19.9131 21.5308 20.1628 21.1584 20.1657H10.8409C10.4682 20.1631 10.1425 19.9134 10.0434 19.5541L7.68258 11.0166C7.63513 10.8419 7.70581 10.6567 7.85749 10.558C8.00918 10.4594 8.2072 10.4699 8.34758 10.5841L11.9109 13.6374C12.1029 13.7961 12.3559 13.8605 12.6004 13.8131C12.845 13.7657 13.0555 13.6114 13.1742 13.3924L15.6342 8.72156M10.1659 23.4999H21.8326" stroke="white" stroke-width="1.66667" stroke-linecap="round" stroke-linejoin="round"/>
</svg>
