<svg width="20" height="20" viewBox="0 0 20 20" fill="none" xmlns="http://www.w3.org/2000/svg">
<path d="M8.55607 17.4998C8.85381 18.0155 9.40399 18.3331 9.99941 18.3331C10.5948 18.3331 11.145 18.0155 11.4427 17.4998M2.71774 12.7715C2.49531 13.0153 2.4377 13.3674 2.57083 13.6693C2.70395 13.9713 3.00273 14.1663 3.33274 14.1665H16.6661C16.996 14.1666 17.295 13.972 17.4285 13.6703C17.562 13.3685 17.5048 13.0164 17.2827 12.7723C16.1744 11.6298 14.9994 10.4157 14.9994 6.6665C14.9994 3.90693 12.759 1.6665 9.99941 1.6665C7.23983 1.6665 4.99941 3.90693 4.99941 6.6665C4.99941 10.4157 3.82357 11.6298 2.71774 12.7715" stroke="#E6E6FA" stroke-width="1.66667" stroke-linecap="round" stroke-linejoin="round"/>
</svg>
