<svg width="22" height="22" viewBox="0 0 22 22" fill="none" xmlns="http://www.w3.org/2000/svg">
<path d="M10.0194 1.81639C10.1078 1.3431 10.5209 1 11.0024 1C11.4839 1 11.897 1.3431 11.9854 1.81639L13.0364 7.37439C13.1892 8.18308 13.8217 8.81563 14.6304 8.96839L20.1884 10.0194C20.6617 10.1078 21.0048 10.5209 21.0048 11.0024C21.0048 11.4839 20.6617 11.897 20.1884 11.9854L14.6304 13.0364C13.8217 13.1892 13.1892 13.8217 13.0364 14.6304L11.9854 20.1884C11.897 20.6617 11.4839 21.0048 11.0024 21.0048C10.5209 21.0048 10.1078 20.6617 10.0194 20.1884L8.96839 14.6304C8.81563 13.8217 8.18308 13.1892 7.37439 13.0364L1.81639 11.9854C1.3431 11.897 1 11.4839 1 11.0024C1 10.5209 1.3431 10.1078 1.81639 10.0194L7.37439 8.96839C8.18308 8.81563 8.81563 8.18308 8.96839 7.37439L10.0194 1.81639M19.0024 1.00239V5.00239M21.0024 3.00239H17.0024" stroke="#8E8A98" stroke-width="2" stroke-linecap="round" stroke-linejoin="round"/>
<path d="M1.00195 19.0024C1.00195 20.1063 1.89812 21.0024 3.00195 21.0024C4.10578 21.0024 5.00195 20.1063 5.00195 19.0024C5.00195 17.8986 4.10578 17.0024 3.00195 17.0024C1.89812 17.0024 1.00195 17.8986 1.00195 19.0024H1.00195" stroke="#8E8A98" stroke-width="2" stroke-linecap="round" stroke-linejoin="round"/>
</svg>
