<svg width="32" height="32" viewBox="0 0 32 32" fill="none" xmlns="http://www.w3.org/2000/svg">
<rect width="32" height="32" rx="10" fill="#F59E0B" fill-opacity="0.1"/>
<path d="M9.33268 11H22.666C23.5865 11 24.3327 11.7462 24.3327 12.6667V19.3333C24.3327 20.2538 23.5865 21 22.666 21H9.33268C8.41221 21 7.66602 20.2538 7.66602 19.3333V12.6667C7.66602 11.7462 8.41221 11 9.33268 11V11" stroke="#FBBF24" stroke-width="1.66667" stroke-linecap="round" stroke-linejoin="round"/>
<path d="M14.334 16.0002C14.334 16.92 15.0808 17.6668 16.0007 17.6668C16.9205 17.6668 17.6673 16.92 17.6673 16.0002C17.6673 15.0803 16.9205 14.3335 16.0007 14.3335C15.0808 14.3335 14.334 15.0803 14.334 16.0002V16.0002" stroke="#FBBF24" stroke-width="1.66667" stroke-linecap="round" stroke-linejoin="round"/>
<path d="M11 16H11.0083M21 16H21.0083" stroke="#FBBF24" stroke-width="1.66667" stroke-linecap="round" stroke-linejoin="round"/>
</svg>
