<svg width="14" height="14" viewBox="0 0 14 14" fill="none" xmlns="http://www.w3.org/2000/svg">
<path d="M6.42733 1.64127C6.4789 1.36518 6.71988 1.16504 7.00075 1.16504C7.28161 1.16504 7.52259 1.36518 7.57416 1.64127L8.18725 4.88344C8.27636 5.35517 8.64534 5.72416 9.11708 5.81327L12.3592 6.42635C12.6353 6.47792 12.8355 6.71891 12.8355 6.99977C12.8355 7.28063 12.6353 7.52162 12.3592 7.57319L9.11708 8.18627C8.64534 8.27538 8.27636 8.64437 8.18725 9.1161L7.57416 12.3583C7.52259 12.6344 7.28161 12.8345 7.00075 12.8345C6.71988 12.8345 6.4789 12.6344 6.42733 12.3583L5.81425 9.1161C5.72513 8.64437 5.35615 8.27538 4.88441 8.18627L1.64225 7.57319C1.36616 7.52162 1.16602 7.28063 1.16602 6.99977C1.16602 6.71891 1.36616 6.47792 1.64225 6.42635L4.88441 5.81327C5.35615 5.72416 5.72513 5.35517 5.81425 4.88344L6.42733 1.64127M11.6674 1.16644V3.49977M12.8341 2.3331H10.5007" stroke="#A78BFA" stroke-width="1.16667" stroke-linecap="round" stroke-linejoin="round"/>
<path d="M1.16602 11.6667C1.16602 12.3106 1.68878 12.8333 2.33268 12.8333C2.97658 12.8333 3.49935 12.3106 3.49935 11.6667C3.49935 11.0228 2.97658 10.5 2.33268 10.5C1.68878 10.5 1.16602 11.0228 1.16602 11.6667H1.16602" stroke="#A78BFA" stroke-width="1.16667" stroke-linecap="round" stroke-linejoin="round"/>
</svg>
