<svg width="11" height="13" viewBox="0 0 11 13" fill="none" xmlns="http://www.w3.org/2000/svg">
<path d="M9.91732 7.00042C9.91732 9.91709 7.87565 11.3754 5.44898 12.2213C5.32191 12.2643 5.18388 12.2623 5.05815 12.2154C2.62565 11.3754 0.583984 9.91709 0.583984 7.00042V2.91709C0.583984 2.59514 0.845367 2.33376 1.16732 2.33376C2.33398 2.33376 3.79232 1.63376 4.80732 0.747092C5.06263 0.528964 5.43867 0.528964 5.69398 0.747092C6.71482 1.63959 8.16732 2.33376 9.33398 2.33376C9.65615 2.33376 9.91732 2.59493 9.91732 2.91709V7.00042" stroke="#E2E8F0" stroke-opacity="0.9" stroke-width="1.16667" stroke-linecap="round" stroke-linejoin="round"/>
<path d="M3.5 6.41715L4.66667 7.58382L7 5.25049" stroke="#E2E8F0" stroke-opacity="0.9" stroke-width="1.16667" stroke-linecap="round" stroke-linejoin="round"/>
</svg>
